<svg xmlns="http://www.w3.org/2000/svg" width="12" height="16" viewBox="0 0 12 16" fill="none">
  <path d="M6.00005 8.00056C6.00005 4.44603 11.3336 4.44603 11.3336 8.00056C11.3336 11.5551 6.00005 11.5551 6.00005 8.00056ZM0.666504 13.3341C0.666307 12.9839 0.735144 12.637 0.86908 12.3134C1.00301 11.9898 1.19942 11.6958 1.44707 11.4481C1.69472 11.2005 1.98875 11.0041 2.31236 10.8702C2.63596 10.7362 2.9828 10.6674 3.33303 10.6676H5.99955V13.3341C5.99955 16.8886 0.666504 16.8886 0.666504 13.3341ZM6.00005 0.000500426V5.33404H8.66657C12.2211 5.33404 12.2211 0.000500426 8.66657 0.000500426H6.00005ZM0.666504 2.66702C0.666307 3.01725 0.735144 3.36408 0.86908 3.68769C1.00301 4.01129 1.19942 4.30533 1.44707 4.55298C1.69472 4.80062 1.98875 4.99703 2.31236 5.13097C2.63596 5.2649 2.9828 5.33374 3.33303 5.33354L6.00005 5.33404V0.000500426L3.33303 4.22419e-07C2.9828 -0.00019676 2.63596 0.0686403 2.31236 0.202576C1.98875 0.336511 1.69472 0.532918 1.44707 0.780567C1.19942 1.02822 1.00301 1.32225 0.86908 1.64585C0.735144 1.96946 0.666307 2.31679 0.666504 2.66702ZM0.666504 8.00056C0.666307 8.35079 0.735144 8.69762 0.86908 9.02123C1.00301 9.34484 1.19942 9.63887 1.44707 9.88652C1.69472 10.1342 1.98875 10.3306 2.31236 10.4645C2.63596 10.5984 2.9828 10.6678 3.33303 10.6676H5.99955L6.00005 5.33404L3.33303 5.33354C2.9828 5.33334 2.63596 5.40218 2.31236 5.53612C1.98875 5.67005 1.69472 5.86646 1.44707 6.11411C1.19942 6.36176 1.00301 6.65579 0.86908 6.9794C0.735144 7.303 0.666307 7.65033 0.666504 8.00056Z" fill="#FDFDFD"/>
</svg>