<svg xmlns="http://www.w3.org/2000/svg" width="16" height="17" viewBox="0 0 16 17" fill="none">
  <g clip-path="url(#clip0_705_314)">
    <path d="M8 0.662109C3.5 0.662109 0 4.16211 0 8.66211C0 13.9121 4.75 16.1621 5.5 16.1621C6 16.1621 6 15.9121 6 15.6621V14.4121C4.25 14.9121 3.5 13.9121 3.25 13.1621C3.25 13.1621 3.25 12.9121 2.75 12.4121C2.5 12.1621 1.5 11.6621 2.5 11.6621C3.25 11.6621 3.75 12.6621 3.75 12.6621C4.5 13.6621 5.5 13.4121 6 13.1621C6 12.6621 6.5 12.1621 6.5 12.1621C4.5 11.9121 3 11.1621 3 8.41211C3 7.41211 3.25 6.66211 3.75 6.16211C3.75 6.16211 3.25 5.16211 3.75 3.91211C3.75 3.91211 5 3.91211 6 4.91211C6.75 4.41211 9.25 4.41211 10 4.91211C11 3.91211 12.25 3.91211 12.25 3.91211C12.75 5.66211 12.25 6.16211 12.25 6.16211C12.75 6.66211 13 7.41211 13 8.41211C13 11.1621 11.25 11.9121 9.5 12.1621C9.75 12.4121 10 12.9121 10 13.6621V15.6621C10 15.9121 10 16.1621 10.5 16.1621C11.25 16.1621 16 13.9121 16 8.66211C16 4.16211 12.5 0.662109 8 0.662109Z" fill="#FDFDFD"/>
  </g>
  <defs>
    <clipPath id="clip0_705_314">
      <rect width="16" height="16" fill="white" transform="translate(0 0.662109)"/>
    </clipPath>
  </defs>
</svg>