<svg width="11" height="11" viewBox="0 0 11 11" fill="none" xmlns="http://www.w3.org/2000/svg">
<g id="akar-icons:moon-fill">
<path id="Vector" d="M8.83421 6.88544C8.91496 6.68294 8.68418 6.51044 8.49062 6.60044C8.10372 6.77921 7.68568 6.87117 7.26314 6.87044C5.60658 6.87044 4.26391 5.48544 4.26391 3.77669C4.26331 3.19975 4.41902 2.63459 4.71279 2.14752C4.82521 1.96086 4.69023 1.70252 4.48439 1.75752C2.8975 2.18377 1.72583 3.67211 1.72583 5.44253C1.72583 7.54544 3.37843 9.25003 5.41737 9.25003C6.96112 9.25003 8.28321 8.27294 8.83421 6.88544Z" fill="#202020"/>
<path id="Vector_2" d="M6.71766 1.79289C6.50787 1.64539 6.2577 1.90873 6.39743 2.12956L6.6468 2.52331C6.74797 2.68296 6.80195 2.87057 6.80195 3.06248C6.80195 3.25438 6.74797 3.44199 6.6468 3.60164L6.39743 3.99539C6.2577 4.21623 6.50826 4.47956 6.71805 4.33206L7.09172 4.06956C7.24339 3.96307 7.42162 3.90625 7.60393 3.90625C7.78624 3.90625 7.96447 3.96307 8.11614 4.06956L8.4902 4.33206C8.69999 4.47956 8.95016 4.21623 8.81003 3.99539L8.56066 3.60164C8.4595 3.44199 8.40551 3.25438 8.40551 3.06248C8.40551 2.87057 8.4595 2.68296 8.56066 2.52331L8.81003 2.12956C8.95016 1.90873 8.69999 1.64539 8.4898 1.79289L8.11614 2.05539C7.96447 2.16188 7.78624 2.2187 7.60393 2.2187C7.42162 2.2187 7.24339 2.16188 7.09172 2.05539L6.71766 1.79289Z" fill="#202020"/>
</g>
</svg>
