<svg width="20" height="20" viewBox="0 0 20 20" fill="none" xmlns="http://www.w3.org/2000/svg">
<g id="tabler:sun-filled">
<path id="Vector" d="M9.99989 15.8334C10.204 15.8334 10.401 15.9083 10.5535 16.044C10.7061 16.1796 10.8035 16.3665 10.8274 16.5692L10.8332 16.6667V17.5C10.833 17.7124 10.7517 17.9167 10.6059 18.0712C10.46 18.2256 10.2608 18.3185 10.0487 18.331C9.83669 18.3434 9.62791 18.2745 9.46503 18.1381C9.30215 18.0018 9.19748 17.8084 9.17239 17.5975L9.16656 17.5V16.6667C9.16656 16.4457 9.25435 16.2337 9.41063 16.0774C9.56692 15.9212 9.77888 15.8334 9.99989 15.8334ZM15.2607 14.0917L15.3391 14.1609L15.9224 14.7442C16.0718 14.8942 16.1586 15.0954 16.1651 15.307C16.1715 15.5186 16.0972 15.7248 15.9572 15.8836C15.8172 16.0424 15.6219 16.1419 15.4112 16.162C15.2004 16.1821 14.9899 16.1212 14.8224 15.9917L14.7441 15.9225L14.1607 15.3392C14.0169 15.1956 13.9305 15.0045 13.9178 14.8017C13.905 14.5989 13.9668 14.3984 14.0915 14.238C14.2162 14.0776 14.3952 13.9682 14.5949 13.9305C14.7946 13.8929 15.0011 13.9294 15.1757 14.0334L15.2607 14.0917ZM5.83906 14.1609C5.98254 14.3043 6.06873 14.4953 6.08146 14.6978C6.0942 14.9003 6.0326 15.1005 5.90822 15.2609L5.83906 15.3392L5.25572 15.9225C5.10576 16.072 4.90453 16.1587 4.6929 16.1652C4.48128 16.1717 4.27513 16.0973 4.11633 15.9573C3.95752 15.8173 3.85797 15.6221 3.83789 15.4113C3.81781 15.2005 3.87871 14.99 4.00822 14.8225L4.07739 14.7442L4.66072 14.1609C4.817 14.0046 5.02892 13.9169 5.24989 13.9169C5.47086 13.9169 5.68278 14.0046 5.83906 14.1609ZM3.33322 9.16669C3.54562 9.16692 3.74992 9.24825 3.90436 9.39406C4.05881 9.53987 4.15175 9.73915 4.1642 9.95118C4.17665 10.1632 4.10766 10.372 3.97134 10.5349C3.83501 10.6978 3.64164 10.8024 3.43072 10.8275L3.33322 10.8334H2.49989C2.28749 10.8331 2.0832 10.7518 1.92875 10.606C1.7743 10.4602 1.68136 10.2609 1.66891 10.0489C1.65647 9.83682 1.72545 9.62804 1.86178 9.46516C1.9981 9.30228 2.19148 9.19761 2.40239 9.17252L2.49989 9.16669H3.33322ZM17.4999 9.16669C17.7123 9.16692 17.9166 9.24825 18.071 9.39406C18.2255 9.53987 18.3184 9.73915 18.3309 9.95118C18.3433 10.1632 18.2743 10.372 18.138 10.5349C18.0017 10.6978 17.8083 10.8024 17.5974 10.8275L17.4999 10.8334H16.6666C16.4542 10.8331 16.2499 10.7518 16.0954 10.606C15.941 10.4602 15.848 10.2609 15.8356 10.0489C15.8231 9.83682 15.8921 9.62804 16.0284 9.46516C16.1648 9.30228 16.3581 9.19761 16.5691 9.17252L16.6666 9.16669H17.4999ZM5.17739 4.00835L5.25572 4.07752L5.83906 4.66085C5.98851 4.81082 6.07529 5.01205 6.08175 5.22367C6.08821 5.4353 6.01388 5.64145 5.87385 5.80025C5.73382 5.95906 5.5386 6.05861 5.32783 6.07869C5.11706 6.09876 4.90655 6.03786 4.73906 5.90835L4.66072 5.83919L4.07739 5.25585C3.93413 5.11225 3.84817 4.92133 3.83561 4.71888C3.82306 4.51643 3.88477 4.31635 4.00919 4.15615C4.13361 3.99595 4.31219 3.88663 4.51145 3.84868C4.71071 3.81073 4.91697 3.84676 5.09156 3.95002L5.17739 4.00835ZM15.9224 4.07752C16.0659 4.22101 16.1521 4.41193 16.1648 4.61445C16.1775 4.81697 16.1159 5.01718 15.9916 5.17752L15.9224 5.25585L15.3391 5.83919C15.1891 5.98864 14.9879 6.07542 14.7762 6.08188C14.5646 6.08834 14.3585 6.01401 14.1997 5.87398C14.0409 5.73395 13.9413 5.53873 13.9212 5.32796C13.9011 5.11719 13.962 4.90668 14.0916 4.73919L14.1607 4.66085L14.7441 4.07752C14.9003 3.92129 15.1123 3.83353 15.3332 3.83353C15.5542 3.83353 15.7661 3.92129 15.9224 4.07752ZM9.99989 1.66669C10.204 1.66671 10.401 1.74165 10.5535 1.87728C10.7061 2.01292 10.8035 2.19981 10.8274 2.40252L10.8332 2.50002V3.33335C10.833 3.54575 10.7517 3.75005 10.6059 3.90449C10.46 4.05894 10.2608 4.15188 10.0487 4.16433C9.83669 4.17678 9.62791 4.10779 9.46503 3.97147C9.30215 3.83514 9.19748 3.64177 9.17239 3.43085L9.16656 3.33335V2.50002C9.16656 2.27901 9.25435 2.06704 9.41063 1.91076C9.56692 1.75448 9.77888 1.66669 9.99989 1.66669ZM9.99989 5.83335C10.8163 5.83331 11.6147 6.07309 12.296 6.52294C12.9773 6.97278 13.5114 7.61285 13.832 8.36365C14.1526 9.11446 14.2456 9.94291 14.0995 10.7461C13.9533 11.5493 13.5743 12.2919 13.0097 12.8816C12.4452 13.4713 11.7198 13.8821 10.9237 14.063C10.1276 14.244 9.29586 14.1871 8.53184 13.8994C7.76781 13.6117 7.10513 13.1059 6.62611 12.4448C6.14708 11.7837 5.87282 10.9965 5.83739 10.1809L5.83322 10L5.83739 9.81919C5.88399 8.74648 6.3429 7.73317 7.11841 6.99057C7.89392 6.24797 8.92617 5.83342 9.99989 5.83335Z" fill="#202020"/>
</g>
</svg>
