<svg width="10" height="11" viewBox="0 0 10 11" fill="none" xmlns="http://www.w3.org/2000/svg">
<g id="tabler:sun-filled" clip-path="url(#clip0_625_8044)">
<path id="Vector" d="M4.78822 8.41665C4.88517 8.41666 4.97875 8.45413 5.0512 8.52194C5.12365 8.58976 5.16994 8.68321 5.18128 8.78456L5.18405 8.83331V9.24998C5.18394 9.35618 5.14531 9.45833 5.07605 9.53555C5.00679 9.61277 4.91213 9.65924 4.81141 9.66547C4.7107 9.67169 4.61153 9.6372 4.53416 9.56904C4.45679 9.50087 4.40707 9.40419 4.39515 9.29873L4.39238 9.24998V8.83331C4.39238 8.72281 4.43409 8.61682 4.50832 8.53868C4.58255 8.46054 4.68324 8.41665 4.78822 8.41665ZM7.28711 7.54581L7.32432 7.5804L7.6014 7.87206C7.6724 7.94705 7.71361 8.04766 7.71668 8.15347C7.71975 8.25928 7.68444 8.36236 7.61793 8.44176C7.55142 8.52116 7.45869 8.57094 7.35857 8.58098C7.25846 8.59102 7.15846 8.56057 7.0789 8.49581L7.0417 8.46123L6.76461 8.16956C6.69631 8.09779 6.65527 8.00221 6.64921 7.90082C6.64316 7.79942 6.67251 7.69919 6.73174 7.61897C6.79097 7.53876 6.876 7.48409 6.97085 7.46524C7.06569 7.4464 7.1638 7.46468 7.24674 7.51665L7.28711 7.54581ZM2.81182 7.5804C2.87997 7.65214 2.92092 7.7476 2.92696 7.84886C2.93301 7.95012 2.90375 8.05023 2.84468 8.1304L2.81182 8.16956L2.53474 8.46123C2.4635 8.53596 2.36792 8.57934 2.2674 8.58257C2.16688 8.58581 2.06896 8.54864 1.99352 8.47863C1.91809 8.40861 1.8708 8.311 1.86127 8.20561C1.85173 8.10023 1.88066 7.99498 1.94218 7.91123L1.97503 7.87206L2.25211 7.5804C2.32634 7.50228 2.42701 7.4584 2.53197 7.4584C2.63693 7.4584 2.73759 7.50228 2.81182 7.5804ZM1.62155 5.08331C1.72244 5.08343 1.81948 5.1241 1.89284 5.197C1.9662 5.2699 2.01035 5.36954 2.01626 5.47556C2.02218 5.58158 1.98941 5.68597 1.92465 5.76741C1.8599 5.84885 1.76805 5.90119 1.66786 5.91373L1.62155 5.91665H1.22572C1.12483 5.91653 1.02779 5.87586 0.954425 5.80296C0.881063 5.73006 0.836916 5.63042 0.831003 5.5244C0.825091 5.41838 0.857859 5.31399 0.922614 5.23255C0.987368 5.15111 1.07922 5.09877 1.1794 5.08623L1.22572 5.08331H1.62155ZM8.35072 5.08331C8.45161 5.08343 8.54865 5.1241 8.62201 5.197C8.69537 5.2699 8.73952 5.36954 8.74543 5.47556C8.75134 5.58158 8.71858 5.68597 8.65382 5.76741C8.58907 5.84885 8.49721 5.90119 8.39703 5.91373L8.35072 5.91665H7.95488C7.85399 5.91653 7.75695 5.87586 7.68359 5.80296C7.61023 5.73006 7.56608 5.63042 7.56017 5.5244C7.55426 5.41838 7.58703 5.31399 7.65178 5.23255C7.71653 5.15111 7.80839 5.09877 7.90857 5.08623L7.95488 5.08331H8.35072ZM2.49753 2.50415L2.53474 2.53873L2.81182 2.8304C2.88281 2.90538 2.92403 3.00599 2.9271 3.11181C2.93017 3.21762 2.89486 3.32069 2.82835 3.4001C2.76183 3.4795 2.6691 3.52927 2.56899 3.53931C2.46887 3.54935 2.36888 3.5189 2.28932 3.45415L2.25211 3.41956L1.97503 3.1279C1.90698 3.0561 1.86615 2.96064 1.86018 2.85941C1.85422 2.75818 1.88354 2.65814 1.94264 2.57804C2.00173 2.49794 2.08656 2.44328 2.18121 2.42431C2.27585 2.40534 2.37383 2.42335 2.45676 2.47498L2.49753 2.50415ZM7.6014 2.53873C7.66956 2.61048 7.7105 2.70593 7.71655 2.8072C7.7226 2.90846 7.69334 3.00856 7.63426 3.08873L7.6014 3.1279L7.32432 3.41956C7.25309 3.49429 7.1575 3.53768 7.05698 3.54091C6.95646 3.54414 6.85854 3.50697 6.78311 3.43696C6.70767 3.36695 6.66039 3.26933 6.65085 3.16395C6.64131 3.05856 6.67024 2.95331 6.73176 2.86956L6.76461 2.8304L7.0417 2.53873C7.11593 2.46062 7.21659 2.41674 7.32155 2.41674C7.42651 2.41674 7.52717 2.46062 7.6014 2.53873ZM4.78822 1.33331C4.88517 1.33333 4.97875 1.37079 5.0512 1.43861C5.12365 1.50643 5.16994 1.59987 5.18128 1.70123L5.18405 1.74998V2.16665C5.18394 2.27285 5.14531 2.37499 5.07605 2.45222C5.00679 2.52944 4.91213 2.57591 4.81141 2.58213C4.7107 2.58836 4.61153 2.55387 4.53416 2.4857C4.45679 2.41754 4.40707 2.32085 4.39515 2.2154L4.39238 2.16665V1.74998C4.39238 1.63947 4.43409 1.53349 4.50832 1.45535C4.58255 1.37721 4.68324 1.33331 4.78822 1.33331ZM4.78822 3.41665C5.17601 3.41662 5.55526 3.53652 5.87887 3.76144C6.20248 3.98636 6.45619 4.30639 6.60848 4.6818C6.76078 5.0572 6.80495 5.47142 6.73551 5.87303C6.66607 6.27463 6.48608 6.64591 6.2179 6.94075C5.94972 7.2356 5.60515 7.44102 5.22701 7.53149C4.84887 7.62197 4.4538 7.59352 4.09089 7.44967C3.72798 7.30583 3.41321 7.05293 3.18567 6.72238C2.95813 6.39184 2.82786 5.99821 2.81103 5.5904L2.80905 5.49998L2.81103 5.40956C2.83316 4.87321 3.05115 4.36655 3.41951 3.99525C3.78788 3.62396 4.2782 3.41668 4.78822 3.41665Z" fill="#202020"/>
</g>
<defs>
<clipPath id="clip0_625_8044">
<rect width="9.5" height="10" fill="white" transform="translate(0.0383301 0.5)"/>
</clipPath>
</defs>
</svg>
