<svg xmlns="http://www.w3.org/2000/svg" width="16" height="17" viewBox="0 0 16 17" fill="none">
  <path d="M14.2349 3.38886C13.6726 2.54519 12.4793 2.42719 11.7626 3.14386L8.98158 5.92486C8.79358 6.11281 8.6704 6.35579 8.62992 6.61853L8.33825 8.51553C8.32792 8.58277 8.33421 8.65152 8.35657 8.71577C8.37893 8.78002 8.41668 8.83782 8.46653 8.88412C8.51638 8.93042 8.57681 8.96381 8.64253 8.98137C8.70826 8.99893 8.77729 9.00013 8.84359 8.98486L10.7669 8.54119C11.0049 8.4863 11.2216 8.36288 11.3903 8.18619L14.0603 5.38886C14.3121 5.12487 14.4667 4.783 14.4984 4.4195C14.5302 4.056 14.4372 3.69252 14.2349 3.38886ZM7.51459 8.38886C7.48354 8.59066 7.50241 8.79699 7.56952 8.98981C7.63664 9.18263 7.74997 9.35608 7.8996 9.49499C8.04923 9.6339 8.23061 9.73405 8.42788 9.78667C8.62515 9.83929 8.83231 9.84279 9.03125 9.79686L10.9546 9.35319C11.3512 9.26166 11.7123 9.05597 11.9933 8.76153L14.6666 5.96086V11.9122C14.6666 12.4647 14.4471 12.9946 14.0564 13.3853C13.6657 13.776 13.1358 13.9955 12.5833 13.9955H3.41659C2.86405 13.9955 2.33415 13.776 1.94345 13.3853C1.55275 12.9946 1.33325 12.4647 1.33325 11.9122V8.71086C1.35759 8.70019 1.38125 8.68719 1.40392 8.67153C1.59659 8.53819 1.83292 8.35686 2.08559 8.16286C2.20025 8.07486 2.31859 7.98419 2.43725 7.89453C2.82892 7.59853 3.24859 7.29486 3.65959 7.05219C4.07725 6.80586 4.45192 6.64286 4.75692 6.59619C5.04292 6.55286 5.21992 6.61453 5.35025 6.76686C5.42625 6.85519 5.45492 6.93219 5.46392 7.00186C5.47392 7.07686 5.46459 7.17019 5.42425 7.29119C5.33992 7.54553 5.15859 7.82186 4.93325 8.16453L4.92125 8.18219C4.71125 8.50253 4.45492 8.89319 4.34858 9.29353C4.29292 9.50353 4.27258 9.73386 4.32825 9.97119C4.38425 10.2112 4.51159 10.4295 4.70525 10.6235C4.98392 10.9022 5.30192 11.0342 5.62125 11.0569C5.93025 11.0792 6.21392 10.9979 6.43992 10.8972C6.63537 10.8084 6.81965 10.6969 6.98892 10.5649C7.06375 10.507 7.13562 10.4453 7.20425 10.3802L7.20858 10.3762L7.21025 10.3745L7.21059 10.3742L7.21092 10.3739C7.28694 10.2954 7.32909 10.1902 7.3283 10.0809C7.32751 9.97168 7.28383 9.86711 7.20669 9.78975C7.12954 9.71238 7.02509 9.66841 6.91584 9.66731C6.80659 9.66621 6.70128 9.70806 6.62258 9.78386L6.61725 9.78886L6.59058 9.81353C6.5547 9.84552 6.51768 9.8762 6.47958 9.90553C6.363 9.99669 6.23614 10.0739 6.10158 10.1355C5.95259 10.2019 5.80925 10.2349 5.68058 10.2255C5.56258 10.2175 5.43258 10.1722 5.29458 10.0342C5.19592 9.93586 5.15592 9.85153 5.13959 9.78119C5.12225 9.70853 5.12392 9.62053 5.15392 9.50786C5.21925 9.26186 5.39058 8.98619 5.61792 8.63986L5.65792 8.57953C5.85792 8.27619 6.09525 7.91553 6.21525 7.55353C6.28192 7.35153 6.32125 7.12753 6.29025 6.89286C6.25858 6.65286 6.15692 6.42753 5.98292 6.22453C5.61325 5.79319 5.11292 5.69886 4.63092 5.77253C4.16758 5.84319 3.68325 6.07086 3.23592 6.33486C2.78259 6.60253 2.33259 6.92919 1.93492 7.22953C1.80092 7.33086 1.67492 7.42753 1.55659 7.51819L1.55625 7.51853C1.47859 7.57853 1.40392 7.63519 1.33325 7.68919V5.41253C1.33321 5.13891 1.38706 4.86797 1.49174 4.61517C1.59642 4.36237 1.74987 4.13266 1.94333 3.93917C2.13679 3.74568 2.36647 3.59219 2.61925 3.48748C2.87203 3.38276 3.14297 3.32886 3.41659 3.32886H10.3989L8.39225 5.33519C8.07892 5.64851 7.87364 6.05357 7.80625 6.49153L7.51459 8.38886Z" fill="#FDFDFD"/>
</svg>